<svg width="32" height="32" viewBox="0 0 32 32" fill="none" xmlns="http://www.w3.org/2000/svg">
<rect width="32" height="32" fill="white"/>
<rect x="3.62393" y="9.11837" width="12" height="19" rx="0.5" transform="rotate(-16.93 3.62393 9.11837)" fill="white" stroke="url(#paint0_linear_12_92)"/>
<line x1="9.69699" y1="18.768" x2="15.437" y2="17.0208" stroke="url(#paint1_linear_12_92)" stroke-linecap="round"/>
<line x1="8.82345" y1="15.898" x2="14.5634" y2="14.1508" stroke="url(#paint2_linear_12_92)" stroke-linecap="round"/>
<rect x="8.57595" y="6.56476" width="12" height="19" rx="0.5" transform="rotate(-9.54 8.57595 6.56476)" fill="white" stroke="url(#paint3_linear_12_92)"/>
<line x1="13.3575" y1="16.9154" x2="19.2745" y2="15.921" stroke="url(#paint4_linear_12_92)" stroke-linecap="round"/>
<line x1="12.8604" y1="13.9569" x2="18.7774" y2="12.9625" stroke="url(#paint5_linear_12_92)" stroke-linecap="round"/>
<rect x="15.9701" y="6.5594" width="12" height="19" rx="0.5" transform="rotate(7.29 15.9701 6.5594)" fill="white" stroke="url(#paint6_linear_12_92)"/>
<line x1="17.5496" y1="17.8512" x2="23.5011" y2="18.6125" stroke="url(#paint7_linear_12_92)" stroke-linecap="round"/>
<line x1="17.9305" y1="14.8755" x2="23.882" y2="15.6368" stroke="url(#paint8_linear_12_92)" stroke-linecap="round"/>
<defs>
<linearGradient id="paint0_linear_12_92" x1="3.41004" y1="9.15558" x2="13.4333" y2="29.4542" gradientUnits="userSpaceOnUse">
<stop stop-color="#43CEFF"/>
<stop offset="1" stop-color="#BD34FE"/>
</linearGradient>
<linearGradient id="paint1_linear_12_92" x1="9.07305" y1="18.4353" x2="16.0609" y2="17.3535" gradientUnits="userSpaceOnUse">
<stop offset="0.197233" stop-color="#FFE353"/>
<stop offset="1" stop-color="#BB36FE"/>
</linearGradient>
<linearGradient id="paint2_linear_12_92" x1="8.19952" y1="15.5653" x2="15.1874" y2="14.4836" gradientUnits="userSpaceOnUse">
<stop offset="0.197233" stop-color="#43CEFF"/>
<stop offset="1" stop-color="#BB36FE"/>
</linearGradient>
<linearGradient id="paint3_linear_12_92" x1="8.41004" y1="6.52448" x2="18.4333" y2="26.8231" gradientUnits="userSpaceOnUse">
<stop stop-color="#43CEFF"/>
<stop offset="1" stop-color="#BD34FE"/>
</linearGradient>
<linearGradient id="paint4_linear_12_92" x1="12.7815" y1="16.5052" x2="19.8505" y2="16.3312" gradientUnits="userSpaceOnUse">
<stop offset="0.197233" stop-color="#FFE353"/>
<stop offset="1" stop-color="#BB36FE"/>
</linearGradient>
<linearGradient id="paint5_linear_12_92" x1="12.2845" y1="13.5467" x2="19.3534" y2="13.3727" gradientUnits="userSpaceOnUse">
<stop offset="0.197233" stop-color="#44CCFF"/>
<stop offset="1" stop-color="#BB36FE"/>
</linearGradient>
<linearGradient id="paint6_linear_12_92" x1="15.9476" y1="6.36994" x2="25.9709" y2="26.6686" gradientUnits="userSpaceOnUse">
<stop stop-color="#43CEFF"/>
<stop offset="1" stop-color="#BD34FE"/>
</linearGradient>
<linearGradient id="paint7_linear_12_92" x1="17.1171" y1="17.2918" x2="23.9337" y2="19.1719" gradientUnits="userSpaceOnUse">
<stop offset="0.197233" stop-color="#FFE353"/>
<stop offset="1" stop-color="#BB36FE"/>
</linearGradient>
<linearGradient id="paint8_linear_12_92" x1="17.498" y1="14.3161" x2="24.3145" y2="16.1962" gradientUnits="userSpaceOnUse">
<stop stop-color="#44CDFF"/>
<stop offset="1" stop-color="#BB36FE"/>
</linearGradient>
</defs>
</svg>
